<?xml version="1.0" encoding="utf-8"?>
<!-- Generator: Adobe Illustrator 27.5.0, SVG Export Plug-In . SVG Version: 6.00 Build 0)  -->
<svg version="1.1" xmlns="http://www.w3.org/2000/svg" xmlns:xlink="http://www.w3.org/1999/xlink" x="0px" y="0px"
	 viewBox="0 0 500 500" style="enable-background:new 0 0 500 500;" xml:space="preserve">
<g id="Background_Complete">
	<g>
		<g>
			<g>
				<rect y="382.4" style="fill:#EBEBEB;" width="500" height="0.25"/>
				<rect x="104.54" y="389.21" style="fill:#EBEBEB;" width="33.12" height="0.25"/>
				<rect x="171.14" y="398.37" style="fill:#EBEBEB;" width="40.75" height="0.25"/>
				<rect x="52.46" y="395.24" style="fill:#EBEBEB;" width="51.08" height="0.25"/>
				<rect x="356.76" y="390.89" style="fill:#EBEBEB;" width="93.14" height="0.25"/>
				<rect x="341.53" y="390.89" style="fill:#EBEBEB;" width="6.33" height="0.25"/>
				<rect x="277.21" y="395.11" style="fill:#EBEBEB;" width="42.23" height="0.25"/>
				<path style="fill:#EBEBEB;" d="M237,337.8H43.91c-3.15-0.005-5.7-2.56-5.7-5.71V60.66c0.027-3.13,2.57-5.655,5.7-5.66H237
					c3.153,0,5.71,2.556,5.71,5.71l0,0v271.38C242.71,335.243,240.153,337.8,237,337.8z M43.91,55.2
					c-3.012,0.006-5.45,2.448-5.45,5.46v271.43c0,3.012,2.438,5.454,5.45,5.46H237c3.013-0.005,5.454-2.447,5.46-5.46V60.66
					c-0.006-3.013-2.447-5.454-5.46-5.46H43.91z"/>
				<path style="fill:#EBEBEB;" d="M453.31,337.8h-193.1c-3.151-0.005-5.704-2.559-5.71-5.71V60.66
					c0.033-3.132,2.578-5.655,5.71-5.66h193.1c3.126,0.011,5.663,2.534,5.69,5.66v271.43C459,335.236,456.456,337.789,453.31,337.8z
					 M260.21,55.2c-3.013,0.006-5.454,2.447-5.46,5.46v271.43c0.005,3.013,2.447,5.454,5.46,5.46h193.1
					c3.013-0.005,5.454-2.447,5.46-5.46V60.66c-0.005-3.013-2.447-5.454-5.46-5.46H260.21z"/>
			</g>
			<path style="fill:#FAFAFA;" d="M70.672,171.1h86.753c0,0-4.668-10.862-20.264-7.483c0,0-3.283-12.35-15.186-10.642
				c0,0-9.85-10.67-24.215-6.533c-14.365,4.137-13.134,17.175-13.134,17.175S73.956,160.84,70.672,171.1z"/>
			<path style="fill:#FAFAFA;" d="M302.89,104.936h-86.753c0,0,4.668-10.862,20.264-7.483c0,0,3.283-12.35,15.186-10.642
				c0,0,9.85-10.67,24.215-6.533c14.365,4.137,13.134,17.175,13.134,17.175S299.607,94.675,302.89,104.936z"/>
			<path style="fill:#FAFAFA;" d="M366.869,102.113h66.376c0,0-2.542-9.14-12.145-6.147c0,0,1.977-12.26-5.084-13.672
				c-7.061-1.412-9.321,7.909-9.321,7.909s-5.084-6.214-13.275-3.954c-8.191,2.26-9.603,9.714-9.603,9.714
				S371.953,89.167,366.869,102.113z"/>
		</g>
		<g>
			<g>
				<rect x="45.956" y="222.167" style="fill:#E6E6E6;" width="80.74" height="159.966"/>
				<rect x="45.956" y="222.167" style="fill:#F0F0F0;" width="66.06" height="159.966"/>
				<rect x="44.22" y="222.167" style="fill:#E0E0E0;" width="83.425" height="2.611"/>
				<rect x="44.22" y="216.946" style="fill:#E0E0E0;" width="83.425" height="2.611"/>
				<rect x="45.956" y="219.556" style="fill:#F0F0F0;" width="79.936" height="2.611"/>
				<g>
					<rect x="52.228" y="231.585" style="fill:#E6E6E6;" width="12.408" height="12.597"/>
					<rect x="53.321" y="231.585" style="fill:#F5F5F5;" width="11.314" height="12.597"/>
				</g>
				<g>
					<rect x="71.016" y="231.585" style="fill:#E6E6E6;" width="12.408" height="12.597"/>
					<rect x="72.11" y="231.585" style="fill:#F5F5F5;" width="11.314" height="12.597"/>
				</g>
				<g>
					<rect x="89.805" y="231.585" style="fill:#E6E6E6;" width="12.408" height="12.597"/>
					<rect x="90.899" y="231.585" style="fill:#F5F5F5;" width="11.314" height="12.597"/>
				</g>
				<g>
					<rect x="52.228" y="250.133" style="fill:#E6E6E6;" width="12.408" height="12.597"/>
					<rect x="53.321" y="250.133" style="fill:#F5F5F5;" width="11.314" height="12.597"/>
				</g>
				<g>
					<rect x="71.016" y="250.133" style="fill:#E6E6E6;" width="12.408" height="12.597"/>
					<rect x="72.11" y="250.133" style="fill:#F5F5F5;" width="11.314" height="12.597"/>
				</g>
				<g>
					<rect x="89.805" y="250.133" style="fill:#E6E6E6;" width="12.408" height="12.597"/>
					<rect x="90.899" y="250.133" style="fill:#F5F5F5;" width="11.314" height="12.597"/>
				</g>
				<g>
					<rect x="52.228" y="284.102" style="fill:#E6E6E6;" width="12.408" height="12.597"/>
					<rect x="53.321" y="284.102" style="fill:#F5F5F5;" width="11.314" height="12.597"/>
				</g>
				<g>
					<rect x="71.016" y="284.102" style="fill:#E6E6E6;" width="12.408" height="12.597"/>
					<rect x="72.11" y="284.102" style="fill:#F5F5F5;" width="11.314" height="12.597"/>
				</g>
				<g>
					<rect x="89.805" y="284.102" style="fill:#E6E6E6;" width="12.408" height="12.597"/>
					<rect x="90.899" y="284.102" style="fill:#F5F5F5;" width="11.314" height="12.597"/>
				</g>
				<g>
					<rect x="52.228" y="302.651" style="fill:#E6E6E6;" width="12.408" height="12.597"/>
					<rect x="53.321" y="302.651" style="fill:#F5F5F5;" width="11.314" height="12.597"/>
				</g>
				<g>
					<rect x="71.016" y="302.651" style="fill:#E6E6E6;" width="12.408" height="12.597"/>
					<rect x="72.11" y="302.651" style="fill:#F5F5F5;" width="11.314" height="12.597"/>
				</g>
				<g>
					<rect x="89.805" y="302.651" style="fill:#E6E6E6;" width="12.408" height="12.597"/>
					<rect x="90.899" y="302.651" style="fill:#F5F5F5;" width="11.314" height="12.597"/>
				</g>
				<g>
					<rect x="52.228" y="340.401" style="fill:#E6E6E6;" width="12.408" height="12.597"/>
					<rect x="53.321" y="340.401" style="fill:#F5F5F5;" width="11.314" height="12.597"/>
				</g>
				<g>
					<rect x="71.016" y="340.401" style="fill:#E6E6E6;" width="12.408" height="12.597"/>
					<rect x="72.11" y="340.401" style="fill:#F5F5F5;" width="11.314" height="12.597"/>
				</g>
				<g>
					<rect x="89.805" y="340.401" style="fill:#E6E6E6;" width="12.408" height="12.597"/>
					<rect x="90.899" y="340.401" style="fill:#F5F5F5;" width="11.314" height="12.597"/>
				</g>
				<g>
					<rect x="52.228" y="358.949" style="fill:#E6E6E6;" width="12.408" height="12.597"/>
					<rect x="53.321" y="358.949" style="fill:#F5F5F5;" width="11.314" height="12.597"/>
				</g>
				<g>
					<rect x="71.016" y="358.949" style="fill:#E6E6E6;" width="12.408" height="12.597"/>
					<rect x="72.11" y="358.949" style="fill:#F5F5F5;" width="11.314" height="12.597"/>
				</g>
				<g>
					<rect x="89.805" y="358.949" style="fill:#E6E6E6;" width="12.408" height="12.597"/>
					<rect x="90.899" y="358.949" style="fill:#F5F5F5;" width="11.314" height="12.597"/>
				</g>
				<rect x="45.956" y="271.588" style="fill:#E0E0E0;" width="80.74" height="1.165"/>
				<rect x="45.956" y="329.65" style="fill:#E0E0E0;" width="80.74" height="1.165"/>
			</g>
			<g>
				<rect x="364.43" y="189.156" style="fill:#E0E0E0;" width="79.772" height="194.109"/>
				<rect x="364.43" y="189.156" style="fill:#F0F0F0;" width="57.052" height="194.109"/>
				<g>
					<rect x="370.31" y="205.109" style="fill:#E6E6E6;" width="21.232" height="10.307"/>
					<rect x="371.724" y="205.109" style="fill:#F5F5F5;" width="19.818" height="10.307"/>
				</g>
				<g>
					<rect x="394.868" y="205.109" style="fill:#E6E6E6;" width="21.231" height="10.307"/>
					<rect x="396.282" y="205.109" style="fill:#F5F5F5;" width="19.818" height="10.307"/>
				</g>
				<g>
					<rect x="370.31" y="224.511" style="fill:#E6E6E6;" width="21.232" height="10.307"/>
					<rect x="371.724" y="224.511" style="fill:#F5F5F5;" width="19.818" height="10.307"/>
				</g>
				<g>
					<rect x="394.868" y="224.511" style="fill:#E6E6E6;" width="21.231" height="10.307"/>
					<rect x="396.282" y="224.511" style="fill:#F5F5F5;" width="19.818" height="10.307"/>
				</g>
				<g>
					<rect x="370.31" y="249.305" style="fill:#E6E6E6;" width="21.232" height="10.307"/>
					<rect x="371.724" y="249.305" style="fill:#F5F5F5;" width="19.818" height="10.307"/>
				</g>
				<g>
					<rect x="394.868" y="249.305" style="fill:#E6E6E6;" width="21.231" height="10.307"/>
					<rect x="396.282" y="249.305" style="fill:#F5F5F5;" width="19.818" height="10.307"/>
				</g>
				<g>
					<rect x="370.31" y="263.553" style="fill:#E6E6E6;" width="21.232" height="10.307"/>
					<rect x="371.724" y="263.553" style="fill:#F5F5F5;" width="19.818" height="10.307"/>
				</g>
				<g>
					<rect x="394.868" y="263.553" style="fill:#E6E6E6;" width="21.231" height="10.307"/>
					<rect x="396.282" y="263.553" style="fill:#F5F5F5;" width="19.818" height="10.307"/>
				</g>
				<g>
					<rect x="370.31" y="286.957" style="fill:#E6E6E6;" width="21.232" height="10.307"/>
					<rect x="371.724" y="286.957" style="fill:#F5F5F5;" width="19.818" height="10.307"/>
				</g>
				<g>
					<rect x="394.868" y="286.957" style="fill:#E6E6E6;" width="21.231" height="10.307"/>
					<rect x="396.282" y="286.957" style="fill:#F5F5F5;" width="19.818" height="10.307"/>
				</g>
				<g>
					<rect x="370.31" y="301.205" style="fill:#E6E6E6;" width="21.232" height="10.307"/>
					<rect x="371.724" y="301.205" style="fill:#F5F5F5;" width="19.818" height="10.307"/>
				</g>
				<g>
					<rect x="394.868" y="301.205" style="fill:#E6E6E6;" width="21.231" height="10.307"/>
					<rect x="396.282" y="301.205" style="fill:#F5F5F5;" width="19.818" height="10.307"/>
				</g>
				<g>
					<rect x="370.31" y="326.676" style="fill:#E6E6E6;" width="21.232" height="10.307"/>
					<rect x="371.724" y="326.676" style="fill:#F5F5F5;" width="19.818" height="10.307"/>
				</g>
				<g>
					<rect x="394.868" y="326.676" style="fill:#E6E6E6;" width="21.231" height="10.307"/>
					<rect x="396.282" y="326.676" style="fill:#F5F5F5;" width="19.818" height="10.307"/>
				</g>
				<g>
					<rect x="370.31" y="345.491" style="fill:#E6E6E6;" width="21.232" height="10.307"/>
					<rect x="371.724" y="345.491" style="fill:#F5F5F5;" width="19.818" height="10.307"/>
				</g>
				<g>
					<rect x="394.868" y="345.491" style="fill:#E6E6E6;" width="21.231" height="10.307"/>
					<rect x="396.282" y="345.491" style="fill:#F5F5F5;" width="19.818" height="10.307"/>
				</g>
				<rect x="364.43" y="241.175" style="opacity:0.05;" width="79.772" height="1.773"/>
				<rect x="364.43" y="279.522" style="opacity:0.05;" width="79.772" height="1.773"/>
				<rect x="364.43" y="318.207" style="opacity:0.05;" width="79.772" height="1.773"/>
				<rect x="360.673" y="183.415" style="fill:#E0E0E0;" width="83.529" height="6.2"/>
				<rect x="425.114" y="183.415" style="opacity:0.05;" width="19.088" height="6.2"/>
			</g>
			<g>
				<rect x="160.643" y="145.581" style="fill:#E6E6E6;" width="90.183" height="234.38"/>
				<rect x="127.258" y="145.579" style="fill:#F0F0F0;" width="90.188" height="234.382"/>
				<g>
					<rect x="135.128" y="161.492" style="fill:#E6E6E6;" width="74.449" height="11.938"/>
					<rect x="138.016" y="161.492" style="fill:#F5F5F5;" width="71.56" height="11.938"/>
				</g>
				<g>
					<rect x="135.128" y="181.586" style="fill:#E6E6E6;" width="74.449" height="11.938"/>
					<rect x="138.016" y="181.586" style="fill:#F5F5F5;" width="71.56" height="11.938"/>
				</g>
				<g>
					<rect x="135.128" y="202.472" style="fill:#E6E6E6;" width="74.449" height="11.938"/>
					<rect x="138.016" y="202.472" style="fill:#F5F5F5;" width="71.56" height="11.938"/>
				</g>
				<g>
					<rect x="135.128" y="223.357" style="fill:#E6E6E6;" width="74.449" height="11.938"/>
					<rect x="138.016" y="223.357" style="fill:#F5F5F5;" width="71.56" height="11.938"/>
				</g>
				<g>
					<rect x="135.128" y="244.243" style="fill:#E6E6E6;" width="74.449" height="11.938"/>
					<rect x="138.016" y="244.243" style="fill:#F5F5F5;" width="71.56" height="11.938"/>
				</g>
				<g>
					<rect x="135.128" y="265.129" style="fill:#E6E6E6;" width="74.449" height="11.938"/>
					<rect x="138.016" y="265.129" style="fill:#F5F5F5;" width="71.56" height="11.938"/>
				</g>
				<g>
					<rect x="135.128" y="288.146" style="fill:#E6E6E6;" width="74.449" height="11.938"/>
					<rect x="138.016" y="288.146" style="fill:#F5F5F5;" width="71.56" height="11.938"/>
				</g>
				<g>
					<rect x="135.128" y="311.164" style="fill:#E6E6E6;" width="74.449" height="11.938"/>
					<rect x="138.016" y="311.164" style="fill:#F5F5F5;" width="71.56" height="11.938"/>
				</g>
				<g>
					<rect x="135.128" y="334.181" style="fill:#E6E6E6;" width="74.449" height="11.938"/>
					<rect x="138.016" y="334.181" style="fill:#F5F5F5;" width="71.56" height="11.938"/>
				</g>
				<g>
					<rect x="135.128" y="357.199" style="fill:#E6E6E6;" width="74.449" height="11.938"/>
					<rect x="138.016" y="357.199" style="fill:#F5F5F5;" width="71.56" height="11.938"/>
				</g>
				<rect x="124.706" y="143.22" style="fill:#F5F5F5;" width="128.459" height="5.72"/>
				<rect x="124.706" y="132.902" style="fill:#F5F5F5;" width="128.459" height="5.72"/>
				<rect x="127.258" y="137.501" style="fill:#F0F0F0;" width="121.642" height="5.72"/>
				<rect x="225.697" y="161.488" style="fill:#E0E0E0;" width="25.129" height="11.943"/>
				<rect x="225.697" y="181.139" style="fill:#E0E0E0;" width="25.129" height="11.943"/>
				<rect x="225.697" y="200.79" style="fill:#E0E0E0;" width="25.129" height="11.943"/>
				<rect x="225.697" y="223.355" style="fill:#E0E0E0;" width="25.129" height="11.943"/>
				<rect x="225.697" y="244.24" style="fill:#E0E0E0;" width="25.129" height="11.943"/>
				<rect x="225.697" y="265.126" style="fill:#E0E0E0;" width="25.129" height="11.943"/>
				<rect x="225.697" y="288.144" style="fill:#E0E0E0;" width="25.129" height="11.943"/>
				<rect x="225.697" y="311.161" style="fill:#E0E0E0;" width="25.129" height="11.943"/>
				<rect x="225.697" y="334.179" style="fill:#E0E0E0;" width="25.129" height="11.943"/>
				<rect x="225.697" y="357.196" style="fill:#E0E0E0;" width="25.129" height="11.943"/>
			</g>
			<g>
				<rect x="356.827" y="227.487" style="fill:#E0E0E0;" width="9.924" height="15.522"/>
				<rect x="356.827" y="252.891" style="fill:#E0E0E0;" width="9.924" height="15.522"/>
				<rect x="356.827" y="277.576" style="fill:#E0E0E0;" width="9.924" height="15.522"/>
				<rect x="356.827" y="303.683" style="fill:#E0E0E0;" width="9.924" height="15.522"/>
				<rect x="356.827" y="329.079" style="fill:#E0E0E0;" width="9.924" height="15.522"/>
				<rect x="262.365" y="211.893" style="fill:#E6E6E6;" width="104.386" height="158.759"/>
				<rect x="262.369" y="211.888" style="fill:#F0F0F0;" width="86.749" height="158.761"/>
				<rect x="270.172" y="227.496" style="fill:#EBEBEB;" width="70.545" height="15.52"/>
				<rect x="270.172" y="252.892" style="fill:#EBEBEB;" width="70.545" height="15.52"/>
				<rect x="270.172" y="278.288" style="fill:#EBEBEB;" width="70.545" height="15.52"/>
				<rect x="270.172" y="303.684" style="fill:#EBEBEB;" width="70.545" height="15.52"/>
				<rect x="270.172" y="329.08" style="fill:#EBEBEB;" width="70.545" height="15.52"/>
				<g>
					<rect x="272.773" y="227.496" style="fill:#F5F5F5;" width="67.944" height="15.52"/>
					<rect x="272.773" y="252.892" style="fill:#F5F5F5;" width="67.944" height="15.52"/>
					<rect x="272.773" y="278.288" style="fill:#F5F5F5;" width="67.944" height="15.52"/>
					<rect x="272.773" y="303.684" style="fill:#F5F5F5;" width="67.944" height="15.52"/>
					<rect x="272.773" y="329.08" style="fill:#F5F5F5;" width="67.944" height="15.52"/>
				</g>
			</g>
		</g>
	</g>
</g>
<g id="Background_Simple" style="display:none;">
	<g style="display:inline;">
		<path style="fill:#407BFF;" d="M152.952,349.968c-47.959-7.272-100.863-50.923-101.466-102.376
			c-0.575-49.09,39.924-76.992,83.584-86.637c31.67-6.996,65.298-9.099,93.557-25.016c22.531-12.69,40.136-33.438,63.87-43.704
			c19.927-8.62,43.267-8.934,63.478-1.004c87.106,34.18,64.177,162.51,26.217,225.132c-20.896,34.471-62.956,54.756-102.41,56.056
			C236.982,373.83,194.871,356.323,152.952,349.968z"/>
		<path style="opacity:0.9;fill:#FFFFFF;" d="M152.952,349.968c-47.959-7.272-100.863-50.923-101.466-102.376
			c-0.575-49.09,39.924-76.992,83.584-86.637c31.67-6.996,65.298-9.099,93.557-25.016c22.531-12.69,40.136-33.438,63.87-43.704
			c19.927-8.62,43.267-8.934,63.478-1.004c87.106,34.18,64.177,162.51,26.217,225.132c-20.896,34.471-62.956,54.756-102.41,56.056
			C236.982,373.83,194.871,356.323,152.952,349.968z"/>
	</g>
</g>
<g id="Shape">
	<ellipse id="shape" style="fill:#F5F5F5;" cx="250" cy="416.24" rx="193.89" ry="11.32"/>
</g>
<g id="Route">
	<g>
		<g>
			
				<line style="fill:none;stroke:#407BFF;stroke-linecap:round;stroke-linejoin:round;" x1="139.732" y1="416.24" x2="135.732" y2="416.24"/>
			
				<line style="fill:none;stroke:#407BFF;stroke-linecap:round;stroke-linejoin:round;stroke-dasharray:7.5661,7.5661;" x1="128.166" y1="416.24" x2="26.023" y2="416.24"/>
			
				<line style="fill:none;stroke:#407BFF;stroke-linecap:round;stroke-linejoin:round;" x1="22.24" y1="416.24" x2="18.24" y2="416.24"/>
		</g>
	</g>
</g>
<g id="Character">
	<g>
		<g>
			<g>
				
					<rect x="263.055" y="177.825" transform="matrix(0.9999 -0.0165 0.0165 0.9999 -3.5884 5.3385)" style="fill:#407BFF;" width="115.403" height="83.312"/>
				
					<rect x="262.944" y="178.205" transform="matrix(0.9999 -0.0165 0.0165 0.9999 -3.5979 4.9591)" style="opacity:0.3;fill:#FFFFFF;" width="69.765" height="83.312"/>
				
					<rect x="321.813" y="184.553" transform="matrix(0.9999 -0.0165 0.0165 0.9999 -3.0551 5.5176)" style="opacity:0.3;fill:#FFFFFF;" width="20.085" height="5.604"/>
				
					<rect x="323.075" y="248.18" transform="matrix(0.9999 -0.0165 0.0165 0.9999 -4.108 5.5472)" style="opacity:0.3;fill:#FFFFFF;" width="20.085" height="5.604"/>
			</g>
			<g>
				<ellipse style="fill:none;stroke:#FFFFFF;stroke-miterlimit:10;" cx="356.518" cy="216.855" rx="11.792" ry="13.339"/>
				
					<line style="fill:none;stroke:#FFFFFF;stroke-linecap:round;stroke-linejoin:round;stroke-miterlimit:10;" x1="357.009" y1="205.539" x2="357.007" y2="207.785"/>
				
					<line style="fill:none;stroke:#FFFFFF;stroke-linecap:round;stroke-linejoin:round;stroke-miterlimit:10;" x1="357.522" y1="226.057" x2="357.521" y2="228.302"/>
				
					<line style="fill:none;stroke:#FFFFFF;stroke-linecap:round;stroke-linejoin:round;stroke-miterlimit:10;" x1="346.582" y1="216.406" x2="348.828" y2="216.408"/>
				
					<line style="fill:none;stroke:#FFFFFF;stroke-linecap:round;stroke-linejoin:round;stroke-miterlimit:10;" x1="364.643" y1="216.421" x2="366.888" y2="216.422"/>
				
					<line style="fill:none;stroke:#FFFFFF;stroke-width:0.5;stroke-linecap:round;stroke-linejoin:round;stroke-miterlimit:10;" x1="357" y1="216.415" x2="357.006" y2="209.508"/>
				
					<line style="fill:none;stroke:#FFFFFF;stroke-width:0.5;stroke-linecap:round;stroke-linejoin:round;stroke-miterlimit:10;" x1="357.441" y1="216.855" x2="362.321" y2="221.743"/>
				<path style="fill:#FFFFFF;" d="M358.089,216.415c0,0.602-0.488,1.089-1.09,1.088c-0.602,0-1.089-0.488-1.088-1.09
					c0-0.602,0.488-1.089,1.09-1.088C357.603,215.326,358.09,215.814,358.089,216.415z"/>
				<ellipse style="opacity:0.3;fill:#FFFFFF;" cx="356.518" cy="216.855" rx="15.614" ry="16.871"/>
			</g>
		</g>
		<path style="fill:#407BFF;" d="M226.884,363.149c1.734,1.335,36.665-2.425,27.631-64.404c0,0,16.57,4.211,18.351,3.933
			c0,0,24.317,37.275,6.612,55.737c-17.705,18.462-44.079,19.548-44.079,19.548L226.884,363.149z"/>
		<path style="opacity:0.3;" d="M226.884,363.149c1.734,1.335,36.665-2.425,27.631-64.404c0,0,16.57,4.211,18.351,3.933
			c0,0,24.317,37.275,6.612,55.737c-17.705,18.462-44.079,19.548-44.079,19.548L226.884,363.149z"/>
		<path style="fill:#263238;" d="M265.591,308.343c0.086,0.023-9.76,0.19-13.056-3.918c-3.296-4.108-5.494-11.405,0.479-16.455
			c5.973-5.05,41.224-26.599,57.819-28.298c16.596-1.699,34.35,9.035,34.35,9.035l-21.72,16.065l-46.777,11.322L265.591,308.343z"/>
		<polygon style="fill:#FFC3BD;" points="233.736,353.391 234.649,362.351 245.413,361.442 243.792,352.228 		"/>
		<path style="fill:#263238;" d="M231.648,361.696l15.609-0.217l1.113,7.878c0,0-14.62,0.206-20.628-0.601
			c-6.007-0.806-5.078-3.93-5.078-3.93S229.707,364.995,231.648,361.696z"/>
		
			<ellipse transform="matrix(0.1012 -0.9949 0.9949 0.1012 -79.7603 673.3091)" style="fill:#263238;" cx="332.759" cy="380.797" rx="41.686" ry="35.293"/>
		<path style="fill:#407BFF;" d="M308.244,253.289c0,0,1.617,37.172-20.013,38.229c-21.63,1.058-44.849-1.306-44.849-1.306
			l6.82,66.753l-20.275,1.242c0,0-14.55-56.661-16.835-70.902c-2.285-14.241-0.305-24.309,14.729-30.621
			C242.855,250.372,308.244,253.289,308.244,253.289z"/>
		<path style="fill:#407BFF;" d="M187.246,371.225l26.938-78.223l36.038-39.743c0,0-31.418,0.126-46.52,8.798
			c-15.102,8.673-15.744,19.116-18.468,31.524c-2.724,12.408-13.884,71.145-13.884,71.145L187.246,371.225z"/>
		<path style="opacity:0.7;" d="M308.244,253.289c0,0-33.468-1.492-58.021-0.03l0,0c0,0-31.418,0.126-46.52,8.798
			c-15.102,8.673-15.744,19.116-18.468,31.524c-2.724,12.408-13.884,71.145-13.884,71.145l15.895,6.499l26.938-78.223l0,0
			c4.527,21.679,15.743,65.205,15.743,65.205l20.275-1.242l-6.82-66.753c0,0,23.218,2.364,44.849,1.306
			C309.861,290.461,308.244,253.289,308.244,253.289z"/>
		<path style="fill:#FFC3BD;" d="M253.023,193.008l-12.429,1.515c0,0-2.167,22.849-4.172,27.285c0,0-38.232,5.257-53.893,4.801
			l-7.951,5.398l-0.274,9.395l7.788,0.227l2.512-5.952c0,0,5.261-0.222,6.473-3.189c0,0,40.621,9.815,55.583-1.384
			C246.66,231.102,255.677,217.855,253.023,193.008z"/>
		<path style="fill:#263238;" d="M288.616,131.805c0,0,3.898,4.985,2.41,9.34c-1.488,4.355-5.487,5.033-5.487,5.033
			s-0.726,6.933-4.815,7.128c-4.09,0.195-2.697-15.263-2.697-15.263L288.616,131.805z"/>
		<path style="fill:#263238;" d="M257.133,253.46l-2.735-44.67l-16.937-11.255c0,0,5.503-19.57,16.136-22.848
			c10.634-3.278,33.725-10.901,47.741-7.13c14.016,3.771,12.413,20.316,10.038,32.579l-2.698,0.648c0,0-0.42,48.348-0.434,52.505
			L257.133,253.46z"/>
		<path style="fill:#FFC3BD;" d="M287.615,170.316c-5.557,5.375-16.876,8.571-20.044,5.907c-3.168-2.664,0.822-5.121,3.755-8.144
			c1.598-1.657,1.544-4.768,1.173-7.249c-0.323-2.062-0.855-3.688-0.855-3.688c-10.392-0.575-14.705-5.428-15.13-13.958
			c-0.442-8.531,3.513-18.56,3.513-18.56l7.346-6.268c0,0,9.956,1.508,18.041,7.007c4.752,3.239,3.348,9.62,1.372,14.324
			c-1.382,3.299-3.039,5.772-3.039,5.772C282.597,157.189,287.615,170.316,287.615,170.316z"/>
		<path style="fill:none;stroke:#263238;stroke-linecap:round;stroke-linejoin:round;stroke-miterlimit:10;" d="M262.328,145.502
			c0,0,3.997,0.187,5.754-2.29"/>
		<path style="fill:#263238;" d="M268.703,135.383c-0.022,0.758-0.464,1.36-0.987,1.344c-0.523-0.015-0.929-0.642-0.907-1.4
			c0.022-0.758,0.464-1.36,0.987-1.344C268.319,133.998,268.725,134.625,268.703,135.383z"/>
		<path style="fill:#263238;" d="M259.584,135.623c-0.022,0.758-0.464,1.36-0.987,1.344c-0.523-0.015-0.929-0.642-0.907-1.4
			c0.022-0.758,0.464-1.36,0.987-1.345C259.2,134.239,259.606,134.866,259.584,135.623z"/>
		<path style="fill:#ED847E;" d="M262.753,141.832l-0.412-6.129l-2.929,5.82C259.412,141.524,260.909,142.875,262.753,141.832z"/>
		<path style="fill:none;stroke:#263238;stroke-linecap:round;stroke-linejoin:round;stroke-miterlimit:10;" d="M268.223,130.579
			c0,0,2.7-0.78,3.938,1.832"/>
		<path style="fill:none;stroke:#263238;stroke-linecap:round;stroke-linejoin:round;stroke-miterlimit:10;" d="M256.758,131.71
			c0,0,1.841-1.989,3.999-1.486"/>
		<path style="fill:#263238;" d="M286.788,139.691l-0.01,0c-11.435,0.413-12.861-12.565-12.861-12.565
			c-5.654,2.987-13.89-2.498-13.89-2.498l7.346-6.275c0,0,9.959,1.513,18.04,7.014C290.168,128.605,288.759,134.98,286.788,139.691z
			"/>
		<path style="fill:#407BFF;" d="M256.361,128.434c0,0-5.923-3.947-3.308-6.781c2.615-2.833,18.596,2.562,30.549,9.174
			c0,0-27.376-18.303-34.811-12.514c-6.151,4.79,7.487,11.438,7.083,11.426L256.361,128.434z"/>
		<path style="fill:#407BFF;" d="M289.751,127.091c-0.052,3.533-1.156,6.057-1.156,6.057l-26.887-12.997
			c0,0,1.318-1.691,3.943-3.182c1.36-0.778,3.067-1.495,5.123-1.895c1.696-0.334,3.625-0.457,5.781-0.206
			C286.386,115.979,289.803,123.558,289.751,127.091z"/>
		<path style="fill:#407BFF;" d="M227.995,246.657c-1.759,1.836-24.389-2.856-28.338-0.761c-1.671,0.886-2.396,4.034-4.073,7.426
			l-0.001,0.008c-2.294,4.645-6.363,9.752-17.042,10.09c-18.479,0.585-16.252-18.16-17.713-24.256c0,0-17.497-3.188-18.414-6.251
			c-0.926-3.055,0.201-3.536,0.201-3.536s21.597,3.976,25.778-1.457c0,0,0.821-0.942,2.793-1.871
			c0.008,0.001,0.009-0.008,0.018-0.007c1.664-0.775,4.13-1.539,7.594-1.717c7.612-0.394,16.897,1.747,19.488,6.559
			c5.281,9.835,27.921,7.628,30.026,10.204C230.416,243.674,229.753,244.83,227.995,246.657z"/>
		<path style="fill:none;stroke:#263238;stroke-linecap:round;stroke-linejoin:round;stroke-miterlimit:10;" d="M170.714,259.465
			c0,0-30.364,42.013-5.361,106.659"/>
		<path style="fill:#407BFF;" d="M210.78,281.289l0.001-0.001c0,0-0.002,0.085-0.016,0.247c-0.003,0.102-0.016,0.247-0.029,0.425
			l-0.003,0.102c-0.32,3.969-1.07,8.061-2.02,12.028c-1.388,5.828-3.21,11.38-4.72,15.842c-6.404,18.953-5.661,39.366-5.661,39.366
			c-2.121-2.634-6.027-4.519-10.852-5.835c-17.661-4.85-47.642-2.256-47.642-2.256c-5.881-20.631-3.774-52.911,2.068-71.012
			c5.842-18.1,22.078-14.033,22.078-14.033s17.115,0.498,19.268,0.272c4.622-0.479,8.528-0.365,11.824,0.234
			C208.37,259.108,211.55,269.557,210.78,281.289z"/>
		<path style="fill:#407BFF;" d="M342.585,359.972c-30.03,27.081-87.906,29.918-130.969,26.918l-24.135-43.428l-9.777-17.593
			l31.42-42.347l1.658-2.234c0,0-0.002,0.085-0.016,0.247c-0.003,0.102-0.016,0.247-0.029,0.425l-0.003,0.102
			c-0.433,7.551-3.211,68.142,18.964,82.97c0.058,0.044,0.125,0.089,0.184,0.125c2.917,1.908,6.258,3.027,10.096,3.139
			c40.757,1.187,39.615-52.04,29.256-63.38l70.711-14.21C339.943,290.705,353.919,325.847,342.585,359.972z"/>
		<path style="fill:#263238;" d="M263.939,293.384c0,0-6.629,5.5-3.206,12.875c3.423,7.374,36.384-6.95,49.364-9.558
			c12.98-2.608,28.056-5.162,34.46-6.491c6.404-1.329,5.908-19.855,0.626-21.503c-5.281-1.647-57.007,7.506-65.587,12.525
			C271.015,286.25,263.939,293.384,263.939,293.384z"/>
		<path style="fill:#FFC3BD;" d="M280.538,144.267c-1.327-1.355-1.431-3.501-0.384-5.082c1.592-2.402,4.829-6.218,7.93-3.369
			c4.334,3.983-3.071,11.272-6.147,9.515C281.361,145.001,280.902,144.639,280.538,144.267z"/>
		<path style="opacity:0.2;" d="M256.361,128.434c0,0-5.923-3.947-3.308-6.781c1.162-1.259,4.628-0.958,9.315,0.34
			c2.633,0.729,5.688,1.688,8.846,3.066c4.111,1.793,8.493,4.081,12.388,5.769c0,0-27.376-18.303-34.811-12.514
			c-6.151,4.79,6.635,10.998,7.085,11.412l0.22-0.803L256.361,128.434z"/>
		<path style="fill:#263238;" d="M259.172,126.722c0,0-6.021,1.005-1.867,7.462L259.172,126.722z"/>
		<path style="fill:#263238;" d="M264.923,122.784c0,0-9.054-3.186-11.569-1.388c-2.514,1.798,0.115,5.235,3.007,7.038l2.309,0.294
			l1.356-4.1l3.529-0.428L264.923,122.784z"/>
		<path style="opacity:0.3;fill:#FFFFFF;" d="M277.251,117.886l-2.172,3.216l-9.428-4.133c1.36-0.778,3.067-1.495,5.123-1.895
			L277.251,117.886z"/>
		<path style="opacity:0.1;" d="M275.145,156.256c0,0-0.892,2.563-2.646,4.574c-0.323-2.062-0.855-3.688-0.855-3.688
			S273.932,156.971,275.145,156.256z"/>
		<g>
			<path style="fill:#F5F5F5;" d="M185.498,244.205c-0.395,6.929-3.397,12.591-7.078,13.955c-0.007,0-0.007,0-0.013-0.001
				c-0.638,0.243-1.295,0.346-1.965,0.308c-4.538-0.258-7.841-7.066-7.378-15.198c0.463-8.124,4.517-14.512,9.055-14.254
				c1.846,0.105,3.482,1.291,4.75,3.209c0.007,0,0.006,0.009,0.006,0.009C184.724,235.032,185.772,239.385,185.498,244.205z"/>
			<path style="fill:#FFFFFF;" d="M185.498,244.205c-0.395,6.929-3.397,12.591-7.078,13.955c-0.007,0-0.007,0-0.013-0.001
				c-4.193-0.239-7.248-6.525-6.821-14.03c0.428-7.513,4.176-13.404,8.369-13.165c1.055,0.06,2.04,0.51,2.914,1.259
				c0.007,0,0.006,0.009,0.006,0.009C184.724,235.032,185.772,239.385,185.498,244.205z"/>
		</g>
		<path style="fill:#263238;" d="M347.574,342.432c-7.735-5.434-37.645-10.758-37.645-10.758
			c-18.174-0.037-34.115,16.342-36.324,38.056c-1.797,17.661,6.015,33.695,18.576,41.014c0,0,1.045,0.431,2.813,1.129
			c6.654,2.626,23.551,9.026,33.545,10.396"/>
		
			<ellipse transform="matrix(0.1012 -0.9949 0.9949 0.1012 -79.7603 673.3091)" style="opacity:0.3;" cx="332.759" cy="380.797" rx="41.686" ry="35.293"/>
		
			<ellipse transform="matrix(0.1012 -0.9949 0.9949 0.1012 -218.1605 517.463)" style="fill:#263238;" cx="177.309" cy="379.472" rx="41.686" ry="35.293"/>
		<path style="fill:#263238;" d="M198.881,345.64l-17.901,75.065c-2.568,0.419-5.211,0.513-7.886,0.239
			c-0.068-0.01-0.136-0.012-0.204-0.023c-3.433-0.884-1.898,0.069-5.341-1.07c-8.749-2.887-21.464-8.015-21.464-8.015
			c-13.463-6.542-21.074-22.479-19.224-40.678c2.243-22.047,18.063-38.519,36.678-37.168c0,0,8.845,1.629,17.941,4.006
			c3.948,1.035,7.951,2.199,11.288,3.438c0.008,0,0.017,0,0.017,0.009C194.958,342.596,196.995,344.01,198.881,345.64z"/>
		<path style="opacity:0.3;" d="M212.417,383.044c-2.006,19.745-15.365,35.072-31.437,37.661c-2.568,0.419-5.211,0.513-7.886,0.239
			c-0.068-0.01-0.136-0.012-0.204-0.023c-3.736-0.407-7.265-1.481-10.505-3.134c-13.506-6.85-22.058-23.487-20.185-41.89
			c2.327-22.888,19.899-39.837,39.28-37.902l0.051,0.002c4.017,0.407,7.798,1.598,11.237,3.436c0.008,0,0.017,0,0.017,0.009
			c2.173,1.154,4.21,2.567,6.096,4.198C208.426,353.925,213.965,367.885,212.417,383.044z"/>
		<path style="fill:#407BFF;" d="M207.548,356.699c-0.375-0.854-1.403-1.867-1.96-2.624c-4.464-6.109-14.688-8.384-21.382-7.846
			c-5.149,0.421-10.008,2.34-14.323,5.137c-4.879,3.163-8.376,7.993-13.209,11.327c-9.179,6.334-23.109,6.158-32.331-0.371
			c-0.526-0.373-1.017-0.771-1.481-1.21c-0.987-0.923-1.511-2.242-1.805-3.553c-0.376-1.698-0.191-3.37,0.375-4.98
			c1.986-5.615,8.672-10.556,12.882-13.568c8.49-6.065,18.564-9.493,28.951-10.213C193.027,326.733,205.68,352.121,207.548,356.699z
			"/>
		<path style="opacity:0.3;" d="M205.488,357.496c-6.391-9.217-14.589-11.805-21.282-11.267c-5.149,0.421-10.008,2.34-14.323,5.137
			c-4.879,3.163-8.376,7.993-13.209,11.327c-9.179,6.334-23.109,6.158-32.331-0.371c-0.526-0.373-1.017-0.771-1.481-1.21
			c-0.987-0.923-1.511-2.242-1.805-3.553c-0.376-1.698-0.191-3.37,0.375-4.98c3.09,3.574,12.09,12.175,24.273,7.973
			c15.204-5.247,18.912-20.854,35.168-20.713C193.775,339.949,201.728,350.018,205.488,357.496z"/>
		<g style="opacity:0.3;">
			<path d="M138.624,336.237c4.26-3.141,9.241-5.24,14.373-6.585c5.15-1.321,10.536-1.748,15.844-1.3
				c2.648,0.269,5.289,0.677,7.86,1.369c2.574,0.666,5.116,1.475,7.545,2.551l1.824,0.797l1.78,0.889
				c1.2,0.565,2.332,1.259,3.488,1.903c1.144,0.665,2.229,1.428,3.344,2.136c1.087,0.752,2.144,1.547,3.205,2.329
				c-4.408-2.901-9.049-5.431-13.931-7.341c-4.868-1.931-9.997-3.209-15.202-3.637c-5.201-0.522-10.473-0.091-15.576,1.049
				c-2.554,0.571-5.066,1.347-7.503,2.321C143.233,333.678,140.853,334.823,138.624,336.237z"/>
		</g>
		<g style="opacity:0.3;">
			<path d="M171.034,329.086c-1.385-4.126-1.865-8.494-2.235-12.813c-0.33-4.334-0.395-8.685-0.308-13.025
				c0.129-4.341,0.391-8.675,0.792-12.995l0.723-6.466c0.32-2.146,0.605-4.295,0.954-6.435l-0.91,12.961l-0.36,6.478
				c-0.062,2.161-0.195,4.32-0.2,6.48c-0.17,4.32-0.091,8.641,0.073,12.955c0.067,2.159,0.241,4.312,0.453,6.461
				C170.24,324.834,170.51,326.983,171.034,329.086z"/>
		</g>
		<path style="opacity:0.3;" d="M229.697,365.032c-20.878-13.436-21.708-48.085-20.983-70.942c0.123-3.932,0.287-7.504,0.41-10.567
			c0.164-4.177,0.241-7.395-0.012-9.234c-2.165-15.727-14.078-17.616-14.078-17.616c0.017,0.001,0.026-0.008,0.043-0.007
			c13.294,2.443,16.474,12.891,15.704,24.624l0.001-0.001c0,0-0.002,0.085-0.016,0.247c-0.003,0.102-0.016,0.247-0.029,0.425
			l-0.003,0.102C210.3,289.613,207.522,350.204,229.697,365.032z"/>
		<path style="opacity:0.2;" d="M227.995,246.657c-1.759,1.836-24.389-2.856-28.338-0.761c-1.671,0.886-2.396,4.034-4.073,7.426
			l-0.001,0.008c-0.009,0.008-0.009,0.016-0.018,0.025c-4.717,7.509-11.351,8.683-11.763,8.745
			c7.922-5.979,10.127-20.445,6.195-29.572c-3.911-9.049-17.993-6.764-18.793-6.485c1.664-0.775,4.13-1.539,7.594-1.717
			c7.612-0.394,16.897,1.747,19.488,6.559c5.281,9.835,27.921,7.628,30.026,10.204C230.416,243.674,229.753,244.83,227.995,246.657z
			"/>
		<path style="fill:#263238;" d="M210.282,237.928c0,0-2.112,3.355-1.572,8.316l19.167,2.157c0,0,3.054-3.023,2.437-8.344
			C230.314,240.057,211.319,238.145,210.282,237.928z"/>
		<path style="fill:#263238;" d="M152.069,237.216c0,0-1.907-4.056,0.377-6.622c-5.117-0.463-8.286-0.972-11.591-1.485
			c-0.481,1.492-0.728,2.925,0.992,5.192C143.567,236.567,152.069,237.216,152.069,237.216z"/>
		<path style="fill:none;stroke:#407BFF;stroke-linecap:round;stroke-linejoin:round;stroke-miterlimit:10;" d="M141.418,262.631
			c-3.316,5.412-6.16,14.071-6.409,27.896"/>
		<path style="fill:none;stroke:#407BFF;stroke-linecap:round;stroke-linejoin:round;stroke-miterlimit:10;" d="M152.35,253.709
			c0,0-2.955,0.421-6.426,3.467"/>
		<path style="fill:#FFC3BD;" d="M301.475,201.579l-12.618,1.538c0,0-2.2,23.198-4.236,27.701c0,0-38.815,5.337-54.716,4.874
			l-8.073,5.48l-0.278,9.538l7.907,0.23l2.55-6.043c0,0,5.341-0.225,6.572-3.238c0,0,41.241,9.964,56.432-1.405
			C295.015,240.255,304.17,226.805,301.475,201.579z"/>
		<g>
			<path style="opacity:0.2;fill:#FAFAFA;" d="M198.722,380.039c-0.366,12.579-8.604,22.543-18.408,22.258
				c-1.336-0.039-2.641-0.264-3.882-0.667c-7.866-2.503-13.524-11.765-13.208-22.624c0.306-10.493,6.095-19.175,13.703-21.585
				c1.513-0.484,3.087-0.719,4.713-0.672C191.445,357.034,199.089,367.46,198.722,380.039z"/>
			<path style="fill:#263238;" d="M189.694,380.015c-0.313,10.732-5.97,19.562-13.261,21.615
				c-7.866-2.503-13.524-11.765-13.208-22.624c0.306-10.493,6.095-19.175,13.703-21.585
				C184.492,359.463,190.018,368.883,189.694,380.015z"/>
		</g>
		<g>
			<path style="opacity:0.2;fill:#FAFAFA;" d="M352.796,381.022c-0.366,12.579-8.603,22.543-18.408,22.257
				c-1.336-0.039-2.641-0.264-3.882-0.667c-7.866-2.503-13.524-11.765-13.208-22.625c0.306-10.493,6.095-19.175,13.703-21.585
				c1.513-0.484,3.087-0.719,4.713-0.672C345.518,358.017,353.162,368.444,352.796,381.022z"/>
			<path style="fill:#263238;" d="M343.768,380.998c-0.313,10.732-5.97,19.562-13.261,21.615
				c-7.866-2.503-13.524-11.765-13.208-22.625c0.306-10.493,6.095-19.175,13.703-21.585
				C338.565,360.446,344.092,369.866,343.768,380.998z"/>
		</g>
		<path style="fill:#407BFF;" d="M368.261,347.858c0.168,12.373-18.665,20.563-50.169,25.719
			c-10.322,1.693-18.874,1.418-25.707,0.299c-14.03-2.308-20.834-8.221-20.834-8.221s3.562-42.758,38.787-48.171
			c23.974-3.68,42.057,5.978,51.225,16.423C365.867,338.81,368.206,343.895,368.261,347.858z"/>
		<path style="opacity:0.3;" d="M368.261,347.858c0.168,12.373-18.665,20.563-50.169,25.719
			c-10.322,1.693-18.874,1.418-25.707,0.299c1.513-11.608,8.294-42.058,37.764-45.22c13.372-1.433,23.694,1.261,31.414,5.25
			C365.867,338.81,368.206,343.895,368.261,347.858z"/>
		<g style="opacity:0.3;">
			<path d="M273.588,365.841c0.594-5.822,2.081-11.543,4.135-17.04c2.061-5.498,4.882-10.732,8.435-15.439
				c1.787-2.346,3.817-4.508,6.017-6.472c2.194-1.968,4.572-3.753,7.164-5.165c5.104-2.979,10.897-4.6,16.697-5.201
				c-2.867,0.564-5.736,1.124-8.454,2.175c-1.392,0.421-2.698,1.072-4.039,1.616c-1.282,0.678-2.603,1.278-3.816,2.074
				c-1.258,0.719-2.417,1.588-3.61,2.403c-1.129,0.902-2.288,1.771-3.332,2.774c-2.136,1.946-4.101,4.086-5.834,6.404
				c-3.555,4.574-6.324,9.732-8.514,15.111c-1.105,2.688-2.056,5.443-2.86,8.243C274.755,360.119,274.075,362.96,273.588,365.841z"
				/>
		</g>
		<polygon style="fill:#407BFF;" points="226.315,351.719 228.389,358.784 250.203,356.965 250.49,347.088 		"/>
	</g>
</g>
<g id="Speed_Line">
	<g>
		
			<line style="fill:none;stroke:#407BFF;stroke-linecap:round;stroke-linejoin:round;stroke-miterlimit:10;" x1="356.163" y1="303.572" x2="404.15" y2="301.623"/>
		
			<line style="fill:none;stroke:#407BFF;stroke-linecap:round;stroke-linejoin:round;stroke-miterlimit:10;" x1="420.008" y1="292.878" x2="427.143" y2="292.588"/>
		
			<line style="fill:none;stroke:#407BFF;stroke-linecap:round;stroke-linejoin:round;stroke-miterlimit:10;" x1="379.156" y1="294.537" x2="414.538" y2="293.1"/>
		
			<line style="fill:none;stroke:#407BFF;stroke-linecap:round;stroke-linejoin:round;stroke-miterlimit:10;" x1="403.92" y1="319.384" x2="433.573" y2="318.179"/>
		
			<line style="fill:none;stroke:#407BFF;stroke-linecap:round;stroke-linejoin:round;stroke-miterlimit:10;" x1="385.586" y1="320.128" x2="398.512" y2="319.603"/>
	</g>
</g>
</svg>
